<svg xmlns="http://www.w3.org/2000/svg"  viewBox="0 0 50 50" width="50px" height="50px"><path d="M 24.960938 6 C 21.132813 6 17.921875 7.21875 15.800781 9.28125 C 14.101563 7.820313 11.839844 7 9.46875 7 C 4.25 7 0 11.019531 0 15.949219 C 0 20.9375 4.25 25 9.46875 25 C 11.769531 25 14.011719 24.171875 15.75 22.671875 C 16.554688 23.460938 17.519531 24.132813 18.613281 24.65625 C 18.507813 24.863281 18.402344 25.0625 18.3125 25.265625 C 15.839844 26.035156 11 28.859375 11 33 C 11 34.71875 12.832031 36 14.503906 36 C 15.550781 36 16.476563 35.488281 17.035156 34.714844 C 17.09375 36.03125 17.6875 37.191406 18 38.195313 C 14.769531 38.992188 13 42.082031 13 43.339844 C 13 45.105469 14.59375 46 17.734375 46 C 20.652344 46 24 45.710938 24 43.460938 C 24 43.3125 23.964844 43.128906 23.941406 42.957031 C 24.261719 42.984375 24.59375 43 24.957031 43 C 25.355469 43 25.714844 42.980469 26.058594 42.953125 C 26.035156 43.125 26 43.308594 26 43.460938 C 26 45.710938 29.347656 46 32.261719 46 C 35.40625 46 37 45.105469 37 43.339844 C 37 42.128906 35.246094 39.007813 32 38.199219 C 32.308594 37.265625 32.859375 36.148438 32.945313 34.785156 C 33.507813 35.519531 34.402344 36 35.414063 36 C 37.089844 36 39 34.71875 39 33 C 39 28.839844 34.03125 26.007813 31.570313 25.25 C 31.476563 25.058594 31.363281 24.886719 31.261719 24.703125 C 32.34375 24.195313 33.300781 23.550781 34.109375 22.789063 C 35.820313 24.210938 38.019531 25 40.269531 25 C 45.539063 25 50 20.859375 50 15.949219 C 50 11.097656 45.539063 7 40.269531 7 C 37.949219 7 35.75 7.78125 34.070313 9.160156 L 34.0625 9.160156 C 31.921875 7.171875 28.75 6 24.960938 6 Z M 24.960938 8 C 29.191406 8 32.449219 9.601563 34.011719 12.21875 L 34.011719 12.230469 C 34.648438 13.320313 35 14.589844 35 16 C 35 17.390625 34.660156 18.632813 34.03125 19.710938 L 34.03125 19.71875 C 32.5 22.378906 29.230469 24 24.960938 24 C 20.460938 24 17.070313 22.171875 15.6875 19.210938 L 15.6875 19.199219 C 15.238281 18.238281 15 17.171875 15 16 C 15 14.820313 15.238281 13.730469 15.699219 12.761719 C 17.089844 9.820313 20.472656 8 24.960938 8 Z M 21.128906 10.941406 C 19.796875 10.871094 18.851563 11.476563 18.851563 11.476563 C 18.542969 11.671875 18.363281 12.019531 18.382813 12.382813 C 18.40625 12.75 18.625 13.074219 18.953125 13.230469 C 19.285156 13.386719 19.675781 13.347656 19.96875 13.132813 C 19.96875 13.132813 20.410156 12.792969 21.320313 12.980469 C 21.863281 13.089844 22.390625 12.742188 22.5 12.203125 C 22.613281 11.660156 22.265625 11.128906 21.722656 11.019531 C 21.519531 10.976563 21.320313 10.953125 21.128906 10.941406 Z M 28.792969 10.941406 C 28.601563 10.953125 28.402344 10.976563 28.199219 11.019531 C 27.65625 11.128906 27.308594 11.660156 27.417969 12.199219 C 27.527344 12.742188 28.058594 13.089844 28.597656 12.980469 C 29.507813 12.792969 29.949219 13.132813 29.949219 13.132813 C 30.242188 13.339844 30.628906 13.371094 30.953125 13.214844 C 31.277344 13.058594 31.492188 12.738281 31.515625 12.378906 C 31.542969 12.019531 31.371094 11.675781 31.066406 11.476563 C 31.066406 11.476563 30.125 10.871094 28.792969 10.941406 Z M 20 15 C 18.894531 15 18 15.894531 18 17 C 18 18.105469 18.894531 19 20 19 C 21.105469 19 22 18.105469 22 17 C 22 16.660156 21.90625 16.339844 21.753906 16.0625 C 21.691406 16.53125 21.304688 16.898438 20.816406 16.898438 C 20.285156 16.898438 19.847656 16.464844 19.847656 15.933594 C 19.847656 15.535156 20.089844 15.199219 20.429688 15.046875 C 20.289063 15.019531 20.148438 15 20 15 Z M 30 15 C 28.894531 15 28 15.894531 28 17 C 28 18.105469 28.894531 19 30 19 C 31.105469 19 32 18.105469 32 17 C 32 16.660156 31.90625 16.339844 31.753906 16.0625 C 31.691406 16.53125 31.304688 16.898438 30.816406 16.898438 C 30.285156 16.898438 29.847656 16.464844 29.847656 15.933594 C 29.847656 15.535156 30.089844 15.199219 30.429688 15.046875 C 30.289063 15.019531 30.148438 15 30 15 Z M 24.957031 19 L 23.914063 20 L 26.003906 20 Z M 23 21 C 23 21 23.945313 23 24.957031 23 C 25.972656 23 27 21 27 21 Z M 28.71875 25.570313 C 29.53125 26.671875 30 28.023438 30 29.445313 C 30 33.539063 27.417969 35 25 35 C 22.582031 35 20 33.539063 20 29.445313 C 20 28.027344 20.464844 26.675781 21.273438 25.578125 C 22.417969 25.847656 23.652344 26 24.960938 26 C 26.300781 26 27.554688 25.847656 28.71875 25.570313 Z"/></svg>